# xmcd CD database file
#
# Track frame offsets:
#	182
#	17402
#	36320
#	54367
#	72590
#	87800
#	107132
#	124440
#	141400
#	159452
#	175407
#
# Disc length: 2590 seconds
#
# Revision: 5
# Processed by: cddbd v1.5PL3 Copyright (c) Steve Scherf et al.
# Submitted via: CDex 1.50Beta7
#
DISCID=9a0a1c0b
DTITLE=Chris Rea - Chris Rea
DYEAR=1981
DGENRE=Rock
TTITLE0=Loving You
TTITLE1=If You Choose To Go
TTITLE2=Guitar Street
TTITLE3=Do You Still Dream?
TTITLE4=Every Beat Of My Heart
TTITLE5=Goodbye Little Columbus
TTITLE6=One Sweet Tender Touch
TTITLE7=Do It For Your Love
TTITLE8=Just Want To Be With You
TTITLE9=Runaway
TTITLE10=When You Know Your Love Has Died
EXTD=YEAR: 1981
EXTT0=
EXTT1=
EXTT2=
EXTT3=
EXTT4=
EXTT5=
EXTT6=
EXTT7=
EXTT8=
EXTT9=
EXTT10=
PLAYORDER=
